Coordinates
version=1
nRows=8
nColumns=63
inDegrees=yes

Units are S.I. units (second, meters, Newtons, ...)
If the header above contains a line with 'inDegrees', this indicates whether rotational values are in degrees (yes) or radians (no).

endheader
time	pelvis_tilt	pelvis_list	pelvis_rotation	pelvis_tx	pelvis_ty	pelvis_tz	hip_flexion_r	hip_adduction_r	hip_rotation_r	knee_angle_r	knee_angle_r_beta	ankle_angle_r	subtalar_angle_r	mtp_angle_r	hip_flexion_l	hip_adduction_l	hip_rotation_l	knee_angle_l	knee_angle_l_beta	ankle_angle_l	subtalar_angle_l	mtp_angle_l	L5_S1_Flex_Ext	L5_S1_Lat_Bending	L5_S1_axial_rotation	L4_L5_Flex_Ext	L4_L5_Lat_Bending	L4_L5_axial_rotation	L3_L4_Flex_Ext	L3_L4_Lat_Bending	L3_L4_axial_rotation	L2_L3_Flex_Ext	L2_L3_Lat_Bending	L2_L3_axial_rotation	L1_L2_Flex_Ext	L1_L2_Lat_Bending	L1_L2_axial_rotation	L1_T12_Flex_Ext	L1_T12_Lat_Bending	L1_T12_axial_rotation	Abs_r3	Abs_r2	Abs_r1	Abs_t1	Abs_t2	neck_flexion	neck_bending	neck_rotation	arm_flex_r	arm_add_r	arm_rot_r	elbow_flex_r	pro_sup_r	wrist_flex_r	wrist_dev_r	arm_flex_l	arm_add_l	arm_rot_l	elbow_flex_l	pro_sup_l	wrist_flex_l	wrist_dev_l
3.254237	5.041863	8.241838	79.901964	0.122231	0.808251	0.805348	1.283632	1.182308	10.711779	17.746874	0.309741	35.257338	4.390871	0.000000	-8.398671	0.886803	13.362968	1.356040	0.023667	27.469521	-17.538411	0.000000	-0.296701	-0.592899	-2.534929	-0.551003	-0.788556	-2.693362	-0.487449	-1.441575	-2.693362	-0.339099	-1.441575	-2.218063	-0.275516	-1.209040	-2.059630	-0.169535	-0.918401	-1.901197	-2.119302	-6.706992	-14.098515	0.000000	0.000000	-3.327223	36.144328	-3.862222	-33.859117	-64.871820	-72.570932	53.856923	29.196101	20.188098	-12.508586	0.550854	-26.493548	38.179394	27.184452	87.879053	-16.828242	1.919370
3.271186	5.129803	8.279129	80.509254	0.121191	0.807771	0.805558	1.217636	1.275156	10.444368	17.743280	0.309679	35.142640	3.962209	0.000000	-8.279975	0.738939	13.749422	1.509313	0.026342	27.812964	-17.442976	0.000000	-0.312111	-0.549665	-2.580861	-0.579621	-0.731055	-2.742165	-0.512767	-1.336456	-2.742165	-0.356712	-1.336456	-2.258253	-0.289826	-1.120877	-2.096950	-0.178340	-0.851431	-1.935646	-2.229378	-6.217922	-14.353974	0.000000	0.000000	-2.889138	37.071724	-5.117289	-35.007104	-65.501316	-65.957251	51.825262	31.128938	15.218647	-12.177067	1.044569	-27.041505	34.102567	28.244446	92.092156	-15.685733	2.448484
3.288136	5.291322	8.341990	81.174070	0.120031	0.807261	0.805943	1.145973	1.450106	10.109284	17.741746	0.309652	35.079441	3.550840	0.000000	-8.193752	0.508256	14.154193	1.663201	0.029028	28.164737	-17.322131	0.000000	-0.335567	-0.492049	-2.679690	-0.623182	-0.654425	-2.847170	-0.551303	-1.196368	-2.847170	-0.383520	-1.196368	-2.344729	-0.311608	-1.003387	-2.177248	-0.191743	-0.762184	-2.009767	-2.396923	-5.566159	-14.903631	0.000000	0.000000	-2.662489	37.584525	-5.481454	-34.827881	-66.386662	-57.754172	48.392315	36.060391	7.907506	-11.966089	1.598588	-27.321330	33.366278	28.535136	93.847088	-14.653614	2.573159
3.305085	5.482591	8.364202	81.918704	0.118803	0.806748	0.806410	1.140265	1.668882	9.657408	17.747656	0.309755	35.068520	3.208587	0.000000	-8.062053	0.228031	14.614682	1.829427	0.031930	28.486322	-17.201900	0.000000	-0.357533	-0.428132	-2.793357	-0.663975	-0.569415	-2.967941	-0.587391	-1.040960	-2.967941	-0.408625	-1.040960	-2.444187	-0.332005	-0.873046	-2.269602	-0.204294	-0.663176	-2.095017	-2.553824	-4.843113	-15.535811	0.000000	0.000000	-2.460980	37.797593	-5.471179	-35.013336	-66.990149	-50.719499	44.282778	44.008253	-0.460146	-12.103744	2.347298	-27.392067	35.955447	28.078852	93.476394	-13.660727	2.379375
3.322034	5.717128	8.320583	82.710243	0.117481	0.806280	0.806840	1.198517	1.940214	9.150614	17.720652	0.309284	35.065992	2.901750	0.000000	-7.876336	-0.104247	15.088440	1.990933	0.034748	28.759081	-17.068191	0.000000	-0.373420	-0.360815	-2.909650	-0.693479	-0.479883	-3.091503	-0.613492	-0.877284	-3.091503	-0.426782	-0.877284	-2.545944	-0.346758	-0.735773	-2.364091	-0.213372	-0.558902	-2.182237	-2.667305	-4.081606	-16.182600	0.000000	0.000000	-2.071860	37.759786	-5.399935	-34.852628	-67.206451	-44.797376	39.520743	49.095150	-6.984959	-11.798882	3.184548	-27.232361	41.179155	27.024467	91.461138	-12.668807	1.907004
3.338983	5.973388	8.189571	83.528405	0.116126	0.805856	0.807127	1.330995	2.241629	8.620157	17.654281	0.308125	35.060487	2.609630	0.000000	-7.622705	-0.462017	15.554996	2.145006	0.037437	28.956792	-16.928739	0.000000	-0.378251	-0.295199	-3.005704	-0.702449	-0.392614	-3.193560	-0.621428	-0.717746	-3.193560	-0.432303	-0.717746	-2.629991	-0.351244	-0.601969	-2.442134	-0.216132	-0.457262	-2.254278	-2.701807	-3.339345	-16.716823	0.000000	0.000000	-1.338606	37.516843	-5.538366	-34.528889	-66.988005	-39.782028	34.326108	53.388001	-12.497784	-10.038516	4.103142	-26.859575	48.705889	25.459291	87.957087	-11.608311	1.208951
3.355932	6.216291	7.981657	84.368868	0.114790	0.805433	0.807209	1.532077	2.535954	8.079701	17.573127	0.306709	35.067480	2.317717	0.000000	-7.307665	-0.807028	15.997889	2.303152	0.040198	29.092499	-16.774251	0.000000	-0.369910	-0.235128	-3.081466	-0.686960	-0.312720	-3.274058	-0.607725	-0.571689	-3.274058	-0.422770	-0.571689	-2.696283	-0.343498	-0.479472	-2.503691	-0.211367	-0.364213	-2.311100	-2.642230	-2.659810	-17.138190	0.000000	0.000000	-0.278102	37.141705	-5.786555	-33.996095	-66.352571	-35.219974	28.867804	57.356479	-15.994224	-7.210504	5.017373	-26.305635	58.032681	23.497735	83.022443	-10.450352	0.334144
3.372881	6.450880	7.713190	85.160690	0.113529	0.804976	0.807096	1.783758	2.821039	7.554603	17.484699	0.305166	35.089056	2.064284	0.000000	-6.949396	-1.134132	16.326969	2.473675	0.043174	29.216824	-16.577959	0.000000	-0.350227	-0.178308	-3.133388	-0.650406	-0.237149	-3.329224	-0.575388	-0.433537	-3.329224	-0.400274	-0.433537	-2.741714	-0.325221	-0.363605	-2.545877	-0.200120	-0.276198	-2.350041	-2.501635	-2.017050	-17.426962	0.000000	0.000000	1.035948	36.735333	-5.919927	-33.168590	-65.363171	-30.996248	23.379983	60.819309	-16.756227	-3.469495	5.868434	-25.581219	68.608372	21.221207	76.815122	-9.235707	-0.646518
